<?xml version="1.0" encoding="UTF-8" standalone="no"?>
<!-- Uploaded to: SVG Repo, www.svgrepo.com, Generator: SVG Repo Mixer Tools -->

<svg
   fill="#000000"
   height="255"
   width="255"
   version="1.1"
   id="Capa_1"
   viewBox="0 0 255 255.00001"
   xml:space="preserve"
   sodipodi:docname="holding.svg"
   inkscape:version="1.3 (0e150ed6c4, 2023-07-21)"
   xmlns:inkscape="http://www.inkscape.org/namespaces/inkscape"
   xmlns:sodipodi="http://sodipodi.sourceforge.net/DTD/sodipodi-0.dtd"
   xmlns="http://www.w3.org/2000/svg"
   xmlns:svg="http://www.w3.org/2000/svg"><defs
   id="defs2" /><sodipodi:namedview
   id="namedview2"
   pagecolor="#ffffff"
   bordercolor="#999999"
   borderopacity="1"
   inkscape:showpageshadow="2"
   inkscape:pageopacity="0"
   inkscape:pagecheckerboard="0"
   inkscape:deskcolor="#d1d1d1"
   inkscape:zoom="1.1481048"
   inkscape:cx="209.91115"
   inkscape:cy="201.63665"
   inkscape:window-width="1920"
   inkscape:window-height="1009"
   inkscape:window-x="-8"
   inkscape:window-y="-8"
   inkscape:window-maximized="1"
   inkscape:current-layer="Capa_1" />&#10;<g
   id="g2"
   transform="scale(0.68181818)">&#10;	<path
   d="m 108.75,150 h 159.602 c 4.782,0 6.634,-3.046 7.208,-4.26 0.574,-1.214 1.747,-4.548 -1.286,-8.246 L 197.5,43.565 V 30 h 24.733 c 3.897,0 7.267,-3.65 7.267,-7.548 V 6.593 C 229.5,2.695 226.131,0 222.233,0 H 187 c -3.898,0 -7.5,2.695 -7.5,6.593 v 36.973 l -76.723,93.816 c -3.033,3.698 -1.917,7.144 -1.343,8.358 0.574,1.213 2.534,4.26 7.316,4.26 z"
   id="path1" />&#10;	<path
   d="m 324.246,173 h -33.123 c -5.306,0 -9.623,4.229 -9.623,9.427 V 190 h -8 v -7.573 c 0,-5.375 -3.913,-9.427 -9.103,-9.427 h -33.123 c -5.39,0 -9.774,4.229 -9.774,9.427 V 190 h -7.918 c -0.028,0 -0.056,0 -0.082,-0.002 v -7.571 c 0,-5.375 -3.849,-9.427 -8.951,-9.427 h -33.124 c -5.38,0 -9.925,4.317 -9.925,9.427 V 190 h -7.766 c -0.081,0 -0.159,-0.005 -0.234,-0.014 v -7.559 c 0,-5.462 -3.701,-9.427 -8.8,-9.427 h -33.124 c -5.462,0 -10.076,4.317 -10.076,9.427 L 101.498,190 h -7.612 c -0.134,0 -0.265,-0.014 -0.385,-0.035 v -7.538 C 93.501,176.876 89.945,173 84.853,173 H 51.727 c -4.939,0 -10.227,3.788 -10.227,9.427 v 29.36 c 0,5.69 5.309,9.213 10.227,9.213 H 54.5 v 140.503 c 0,9.168 6.055,12.497 10.125,12.497 h 85.095 c 3.048,0 4.601,-1.561 5.255,-2.491 1.649,-2.345 0.873,-4.845 0.525,-5.83 v -46.805 c 0,-17.79 14.58,-32.264 32.5,-32.264 17.921,0 32.5,14.474 32.5,32.264 v 47.396 c 0,3.733 3.22,7.729 8.013,7.729 h 82.836 c 3.538,0 9.151,-2.808 9.151,-10.342 V 221.059 c 0.021,-0.021 0.043,-0.042 0.065,-0.059 h 3.681 c 3.808,0 8.254,-2.413 8.254,-9.213 v -29.36 c 0,-6.958 -4.446,-9.427 -8.254,-9.427 z"
   id="path2" />&#10;</g>&#10;</svg>
