<?xml version="1.0" encoding="UTF-8" standalone="no"?>
<!-- Uploaded to: SVG Repo, www.svgrepo.com, Generator: SVG Repo Mixer Tools -->

<svg
   fill="#000000"
   width="255"
   height="255"
   viewBox="0 0 255 255"
   version="1.1"
   id="svg1"
   sodipodi:docname="seat.svg"
   inkscape:version="1.3 (0e150ed6c4, 2023-07-21)"
   xmlns:inkscape="http://www.inkscape.org/namespaces/inkscape"
   xmlns:sodipodi="http://sodipodi.sourceforge.net/DTD/sodipodi-0.dtd"
   xmlns="http://www.w3.org/2000/svg"
   xmlns:svg="http://www.w3.org/2000/svg">
  <defs
     id="defs1" />
  <sodipodi:namedview
     id="namedview1"
     pagecolor="#ffffff"
     bordercolor="#999999"
     borderopacity="1"
     inkscape:showpageshadow="2"
     inkscape:pageopacity="0"
     inkscape:pagecheckerboard="0"
     inkscape:deskcolor="#d1d1d1"
     inkscape:zoom="1.03875"
     inkscape:cx="226.23345"
     inkscape:cy="279.66306"
     inkscape:window-width="1920"
     inkscape:window-height="1009"
     inkscape:window-x="-8"
     inkscape:window-y="-8"
     inkscape:window-maximized="1"
     inkscape:current-layer="svg1" />
  <path
     d="m 127.5,0 c -1.61367,0 -3.1875,0.717636 -4.14374,2.0731707 L 89.090626,50.872421 H 165.90938 L 131.64375,2.0731707 C 130.6875,0.717636 129.11368,0 127.5,0 Z M 22.95,30.459662 c -2.111717,0 -4.024217,1.216 -4.78125,3.189493 l -16.575,42.739213 h 42.7125 L 27.731252,33.649155 C 26.974222,31.675656 25.061722,30.459662 22.95,30.459662 Z m 209.1,0 c -2.09179,0 -4.02422,1.216 -4.78125,3.189493 l -16.57499,42.739213 h 42.71249 l -16.575,-42.739213 C 236.07423,31.675656 234.14179,30.459662 232.05,30.459662 Z M 86.700001,61.0788 v 56.13508 H 112.2 V 96.801126 c 0,-8.671436 6.63398,-15.309569 15.3,-15.309569 8.66602,0 15.30001,6.638133 15.30001,15.309569 V 117.21388 H 168.3 V 61.0788 Z m -20.399999,5.103189 c -2.111717,0 -4.024217,1.355536 -4.78125,3.348968 l -10.2,26.951219 c -0.219143,0.578096 -0.318745,1.295728 -0.318745,1.913696 V 117.21388 H 81.600002 V 98.395872 c 0,-0.617968 -0.09962,-1.3356 -0.318745,-1.913696 L 71.081252,69.530957 c -0.757029,-1.993434 -2.669529,-3.348968 -4.78125,-3.348968 z m 122.400008,0 c -2.11172,0 -4.02422,1.355536 -4.78125,3.348968 l -10.20001,26.951219 c -0.21906,0.578096 -0.31868,1.295728 -0.31868,1.913696 v 18.818008 h 30.6 V 98.395872 c 0,-0.617968 -0.0991,-1.3356 -0.31884,-1.913696 L 193.48126,69.530957 c -0.75703,-1.993434 -2.66953,-3.348968 -4.78125,-3.348968 z M 0,86.594747 V 249.89682 C 0,252.72749 2.2910171,255 5.1,255 h 65.821876 c 2.808983,0 5.1,-2.27251 5.1,-5.10318 0,-38.01479 41.198434,-63.82975 51.478124,-69.69044 10.27969,5.84076 51.47813,31.59592 51.47813,69.69044 0,2.83067 2.2711,5.10318 5.1,5.10318 h 65.82188 C 252.72891,255 255,252.72749 255,249.89682 V 86.594747 H 209.1 V 122.31707 H 45.900001 V 86.594747 Z m 52.593751,68.893053 4.462501,4.62478 c 3.06797,3.06988 5.099999,7.5551 5.099999,11.64164 V 193.2833 H 42.871875 v -21.52908 c 0,-4.58489 1.533985,-8.57176 5.100002,-11.64164 z m 150.450009,0 4.46249,4.62478 c 3.06798,3.06988 5.10001,7.5551 5.10001,11.64164 v 21.52908 h -19.28438 v -21.52908 c 0,-4.58489 1.53392,-8.57176 5.1,-11.64164 z"
     id="path1"
     style="stroke-width:5.10158" />
</svg>
